<svg version="1.1" baseProfile="full" width="600" height="600" xmlns="http://www.w3.org/2000/svg" xmlns:xlink="http://www.w3.org/1999/xlink">
  
  <defs>    
    <path id="S" d="m112.1 278.9l16-9.3c4.3 6.9 9.7 11.9 19.4 11.9 8.2 0 13.4-4 13.4-9.6 0-6.8-5.4-9.2-14.4-13.1l-4.9-2.1c-14.2-6-23.6-13.6-23.6-29.6 0-14.8 11.3-26 28.8-26 12.5 0 21.5 4.4 28 15.7l-15.3 9.9c-3.4-6.1-7.1-8.5-12.7-8.5-5.7 0-9.4 3.7-9.4 8.5 0 5.8 3.7 8.2 12.1 11.9l4.9 2.1c16.7 7.2 26.1 14.5 26.1 30.9 0 17.7-13.9 27.4-32.6 27.4-18.2 0-30-8.7-35.8-20.1z" />
  </defs>

  <rect width="600" height="600" fill="#ebd851" />

  
  <g fill="#323330">
    <path d="m131.4 280.8l16.2-9.8c3.1 5.5 6 10.2 12.8 10.2 6.6 0 10.7-2.5 10.7-12.5l0-67.8 19.9 0 0 68.1c0 20.6-12.1 30-29.7 30-16 0-25.2-8.2-29.9-17.6z"/>
    <use x="100" y="0" xlink:href="#S" />
    <path d="m374 230.7l15.2-10.2a49 49 0 1 0 0 59.2l-15.2-10.1a30.4 30.4 0 1 1 0-38.9z" />
    <use  x="300" y="0" xlink:href="#S" />


    <rect x="135" y="382" width="52" height="17" />
    <rect x="224" y="382" width="52" height="17" />

    <path d="m 307 382 l 43 -43 l 43 43 l -26 0 l -17 -17 l -17 17" />
  </g>
</svg>
